<svg xmlns="http://www.w3.org/2000/svg" aria-hidden="true" data-bbox="10 30 180 140" data-type="color" viewBox="10 30 180 140"><path fill="#00788c" d="M124.15 66.676 68.336 76.702l-2.522 4.826 57.639-10.885 54.74 41.073L48.64 158.204 19.338 89.946l23.936-5.04-.322-3.217L10 88.874 42.2 170 190 113.861z" data-color="1"/><path fill="#00788c" d="M118.408 104.102s-11.109-2.52-7.138 7.131c0 0 4.776 6.81 2.522 15.71l17.496-5.791h-1.61c0-1.18.054-2.413.107-3.592l4.293.375a31 31 0 0 0-.107 2.252l32.683-10.831-17.979-16.622-1.556 1.072 1.61-1.072c-.054.054-2.576 1.823-3.864 3.056l-2.952-3.271a24 24 0 0 1 2.147-1.93l-11.377-9.491s-8.587 3.217-6.44 8.204c.054.108 6.87 10.832-7.835 14.8m22.647-10.778 3.059 3.164a45.4 45.4 0 0 0-4.293 5.308l-3.542-2.574c1.395-2.091 3.059-4.075 4.776-5.898m-5.474 7.025 3.596 2.413a36 36 0 0 0-3.059 6.113l-4.025-1.662c.966-2.307 2.093-4.666 3.488-6.864m-3.864 8.15 4.079 1.501a31.5 31.5 0 0 0-1.556 6.649l-4.293-.536a37.3 37.3 0 0 1 1.77-7.614M123.775 73.861s-29.249 4.504-60 11.475l-5.85 11.046s-3.596 4.987-8.962-1.769l-3.22-5.737-17.549 3.914 8.211 16.086s5.742 11.796 22.54 6.434c0 0 9.284-2.145 9.66-14.638s16.798-9.651 18.623-9.651c1.771 0 28.283 10.724 28.283.375s-2.522-11.421 5.742-14.316c.053-.002 8.264-1.075 2.522-3.219" data-color="1"/><path fill="#00788c" d="M77.299 106.086s-1.073 16.515-13.256 17.748l-20.769.161 11.109 22.895 49.75-17.158s3.918-20.375-10.358-27.185c-.054-.054-13.632-5.791-16.476 3.539M39.204 69.946s10.962 5.63 14.186 23.646c.591 3.164 2.203 0 2.203 0 1.558-14.638 12.789-24.075 12.789-24.075 3.654-1.93 6.018-5.791 6.018-10.188V41.421C74.401 35.113 69.283 30 62.97 30H43.864c-6.523 0-11.86 5.332-11.86 11.85v17.48c0 4.772 3.062 8.901 7.2 10.616m.313-30.405c0-.803.643-1.498 1.5-1.498h24.371c.803 0 1.5.642 1.5 1.498v22.205c0 .803-.643 1.498-1.5 1.498H41.017c-.803 0-1.5-.642-1.5-1.498z" data-color="1"/><path fill="#fff" d="M64.381 38.976v22.938a.034.034 0 0 1-.034.034H42.856a.034.034 0 0 1-.034-.034V38.976a.034.034 0 0 1 .034-.034h21.491a.034.034 0 0 1 .034.034" data-color="2"/><path fill="#00788c" d="M41.223 60.58V40.043s0-1.493 1.781-1.493h20.577c1.7 0 1.7 1.836 1.7 1.836v20.33s0 1.877-1.932 1.877h-20.29c-1.836 0-1.836-2.013-1.836-2.013m12.275-19.591v-1.357c0-.15-.096-.274-.246-.274-.165 0-.247.124-.247.274v1.37c-.22 0-.425.028-.63.055l-.343.055-.082-.452-.11-.713c-.027-.164-.04-.37-.246-.383a.256.256 0 0 0-.274.205c-.014.055.014.137.014.192l.137.863.054.247v.11c-.013.04-.178.068-.219.082l-.438.123-.274.096c-.028-.15-.15-.466-.206-.617l-.15-.493c-.055-.137-.096-.301-.26-.315-.193-.014-.288.137-.261.315l.205.644.233.658-.37.164-.493.26-.383-.794-.206-.398c-.164-.205-.438-.11-.438.124-.014.123.068.246.123.356l.123.246.192.384.096.22c.014.027.055.068.041.109s-.164.137-.205.164a6 6 0 0 0-.535.411l-.328-.465-.165-.247c-.068-.082-.192-.301-.26-.356-.165-.137-.425-.014-.411.205 0 .11.137.26.205.356l.274.384.315.452c-.219.15-.465.452-.643.644-.069-.096-.316-.329-.411-.425l-.288-.287c-.069-.069-.165-.178-.247-.206a.242.242 0 0 0-.329.206c-.013.137.083.219.179.315l.493.493.205.205c.028.042.069.069.055.124l-.137.178-.233.329c-.027.04-.082.164-.123.164l-.082-.041-.178-.137-.48-.356-.233-.165c-.178-.096-.383.028-.37.233 0 .124.11.192.206.26l.41.302.206.164.178.137c.014.014.069.041.069.069.014.04-.069.164-.082.205l-.26.562-.206-.096-.617-.315c-.11-.041-.246-.15-.356-.137-.15.014-.233.137-.219.274.014.164.164.22.288.274l.575.288.356.178-.178.507-.068.315-.124-.041-.123-.055-.438-.137-.452-.123c-.26-.014-.357.315-.151.452.041.04.288.096.37.123l.808.247c-.041.15-.123.685-.123.849l-.726-.11-.33-.054c-.15-.014-.3.04-.314.219-.014.137.082.219.205.26l.809.123c.054.014.26.028.301.069l.014.11v.712h-.987c-.068 0-.123 0-.178.041a.23.23 0 0 0 0 .397c.055.041.11.041.178.041h.22l.219.014h.465c.028 0 .083-.014.11.014s.027.082.027.123l.055.315c0 .041.055.274.041.302-.013.054-.219.068-.274.068l-.561.096c-.096.014-.192.014-.26.082-.138.137-.083.439.219.425l.41-.069.603-.095.151.548.082.219c-.082 0-.219.055-.301.082l-.397.123-.151.055c-.123.041-.233.082-.233.233-.014.164.123.274.288.26l.328-.096.658-.205c.027.123.26.575.329.699l-.74.356c-.123.055-.22.11-.233.246s.096.247.233.26c.11 0 .22-.068.329-.123l.657-.315.288.452c.014.028.11.137.11.178-.014.042-.15.137-.192.165l-.37.274c-.055.04-.15.096-.178.15a.242.242 0 0 0 .26.37c.082-.013.178-.095.26-.15l.562-.411c.041.082.233.301.315.383.028.028.137.124.137.165.014.04-.137.164-.164.205l-.329.315c-.068.069-.137.124-.15.233-.014.15.123.26.273.26.11-.013.179-.082.26-.164l.316-.315c.027-.027.123-.137.164-.15s.124.068.165.109l.438.37c-.096.068-.274.342-.356.452-.041.055-.137.178-.165.247-.04.15.055.315.22.328.137 0 .205-.082.287-.191l.22-.288c.027-.041.11-.192.164-.192.041 0 .123.096.164.123l.411.384c-.054.041-.082.123-.123.192l-.082.164c-.055.11-.123.22-.069.356a.245.245 0 0 0 .37.083c.082-.055.22-.33.26-.439.083.041.138.123.22.192l.233.22c.04.027.15.122.178.177.04.069-.028.124 0 .233.027.123.15.22.274.206l.15-.069c.042.069.247.233.316.302l.438.41 1.041.973.384.356.246.233c.178.178.33.343.617.315.22-.04.288-.15.438-.287l.548-.52.357-.357.123-.137.52-.52.124-.138.52-.52.137-.151.494-.493.383-.384.192-.205.384-.398.356-.37.164-.164.411-.41.397-.357.192-.192.22-.233.109-.11.466-.588.315-.48.274-.425.096-.191.178-.37a9.07 9.07 0 0 0 .575-5.932 10 10 0 0 0-.342-1.055l-.082-.151 2.356.603c.562.04.754-.685.288-.932l-3.206-.836-.123-.191c-.165-.274-.48-.726-.685-.946l.191-.178.439-.424.425-.425c.15-.192.027-.425-.192-.411-.151.014-.288.192-.384.288l-.274.26-.534.534c-.096-.123-.315-.315-.425-.425-.082-.082-.192-.205-.288-.246l.22-.302.507-.698c.095-.137.246-.274.164-.452-.082-.165-.288-.178-.411-.055l-.425.589-.438.616c-.165-.15-.343-.26-.507-.37l-.288-.191.165-.33.328-.643c.055-.123.179-.315.179-.438-.014-.137-.124-.247-.26-.233-.165.013-.234.178-.302.315l-.343.671c-.04.096-.178.343-.205.439-.206-.124-.425-.206-.63-.288l-.288-.11.082-.246.082-.26.083-.22.082-.288c.04-.123.137-.328.137-.452a.24.24 0 0 0-.26-.219c-.22.014-.233.206-.288.37l-.384 1.15-.425-.109-.534-.123.137-.822.069-.411.027-.192c-.014-.288-.37-.329-.466-.11l-.055.206-.054.411-.137.85-.658-.055zm6.617 12.384c.014.165-.068.26-.15.398a8 8 0 0 1-.89 1.137l-.11.123-.124.11-.233.233a7.78 7.78 0 0 1-4.713 1.931l-.15.014h-.562l-.164-.014a7.84 7.84 0 0 1-5.727-3.041 7.84 7.84 0 0 1-1.411-3.137l-.123-.809v-.123l-.014-.137-.014-.288v-.37l.014-.233c0-.397.123-1.11.22-1.493l.054-.192a7.62 7.62 0 0 1 3.452-4.52 7.78 7.78 0 0 1 6.234-.768l.342.11.22.082a7.9 7.9 0 0 1 3.164 2.302l.233.301c.041.041.096.11.11.164l.013.137c0 .096-.068.274-.068.274l-.206.26c-.11.097-.328.151-.328.151l-.041.069-.11.342-.22.726-.63 2.083-.246.808c-.041.137-.069.247-.233.26-.15.028-.26-.11-.247-.246 0-.069.055-.206.069-.274l.178-.576.15-.493.494-1.63.123-.411.178-.603c.014-.055.069-.192.055-.246 0-.055-.178-.26-.219-.316l-.562.576-.657.657-.274.274a1.4 1.4 0 0 1-.22.192c-.164.069-.328-.068-.315-.233 0-.096.055-.137.11-.205l.301-.288.48-.493.836-.836-.22-.205-.274-.247-.424.59-.685.945-.233.315c-.069.082-.11.15-.233.164-.178 0-.288-.123-.233-.288.014-.096.11-.205.164-.274l.26-.356.508-.685.506-.712-.219-.15-.342-.206-.356.685-.548 1.082c-.069.123-.179.41-.288.48-.041.027-.096.027-.137.027a.22.22 0 0 1-.206-.247c0-.082.055-.164.096-.233l.206-.424.548-1.055.164-.343.11-.192c-.192-.082-.439-.219-.63-.26l-.206.644-.274.836-.137.438-.082.247c-.055.15-.082.315-.288.301a.22.22 0 0 1-.205-.247.8.8 0 0 1 .068-.26l.15-.452.37-1.164.165-.494-.657-.15-.137.863-.192 1.192-.041.219c-.014.123-.028.26-.151.329-.041.013-.082.027-.123.013-.151-.013-.22-.11-.206-.246l.082-.59.192-1.164.11-.685-.37-.027h-.302v2.384c0 .068 0 .11-.04.178a.22.22 0 0 1-.357.054c-.068-.068-.068-.15-.068-.232v-2.37l-.672.082.096.685.206 1.219.055.384c.013.11.04.219-.055.315s-.274.082-.343-.041c-.055-.083-.068-.247-.082-.343l-.233-1.397-.11-.713-.616.178.233.74.411 1.233c.055.178.205.493-.055.59h-.096c-.178-.014-.219-.179-.26-.316l-.069-.205-.397-1.206-.096-.329c-.04-.096-.096-.219-.096-.315-.137.028-.465.22-.602.288l.452.89.315.603.178.343c.055.096.123.205.137.315.027.123-.069.246-.192.26-.192 0-.233-.123-.315-.26l-.123-.233-.603-1.178-.165-.33c-.013-.026-.054-.109-.082-.122-.027-.028-.096.027-.123.054l-.247.179-.096.095c-.013.042.042.096.055.137l.233.316.63.876.357.48c.123.192.054.41-.179.397-.054 0-.082-.014-.11-.041-.095-.055-.246-.301-.328-.397l-.644-.89-.383-.549c-.11.069-.22.206-.316.302-.027.027-.095.096-.095.137s.054.082.082.11l.233.232.931.945c.096.11.33.288.343.439 0 .178-.15.288-.315.219-.096-.041-.233-.192-.302-.26l-.945-.96-.233-.232c-.027-.028-.068-.082-.11-.082s-.082.068-.095.096l-.206.315c-.041.068.027.096.082.137l.37.26 1.014.74c.123.096.315.192.315.383-.014.11-.096.192-.205.192-.11.014-.192-.041-.26-.11l-.343-.246-.507-.356-.74-.535-.164.37c-.014.041-.055.11-.041.137a.25.25 0 0 0 .123.083l.26.137 1.096.561.165.096c.137.069.287.123.287.315-.013.11-.096.192-.205.192-.11.014-.288-.096-.384-.137l-.699-.37-.548-.274c-.082-.041-.219-.123-.287-.137l-.137.52 1.603.535c.164.055.48.11.452.343l-.014.082c-.11.205-.329.11-.48.055l-1.205-.398-.438-.15-.055.37c0 .04-.014.123.013.15s.124.028.165.041l.356.055.945.15.507.097c.22.11.165.465-.123.438l-1.028-.164-.356-.055-.493-.069v.37c.014.041 0 .096.027.124s.083.027.124.027h1.726c.068 0 .11 0 .178.027.137.083.164.26.055.37a.4.4 0 0 1-.233.069H47.1l.096.493.644-.11 1-.164c.165-.028.425-.096.493.123l.014.096c-.014.22-.288.22-.452.247l-.384.068-.602.096-.576.096c.014.096.069.233.11.329.014.027.027.082.068.096l.137-.028.356-.123.891-.288.425-.137c.246-.027.356.26.164.411-.068.055-.246.096-.329.124l-.685.233-.78.26.15.288c.014.027.041.082.082.095l.137-.054.315-.165.85-.425.397-.205c.22-.055.384.15.274.343-.055.068-.137.11-.205.15l-.315.15-.48.248-.466.232c-.096.042-.178.11-.274.137l.192.26c.014.028.055.07.096.07.027 0 .082-.042.11-.07l.246-.177.89-.644c.11-.082.247-.233.412-.22.137 0 .205.11.205.247-.014.096-.068.15-.137.206l-.329.233-.438.328-.425.302-.246.178c.04.068.15.164.219.233a.12.12 0 0 0 .096.055l.096-.083.219-.219.767-.767c.096-.11.274-.329.438-.315.124.014.206.11.206.246a.4.4 0 0 1-.137.233l-.26.26-.384.384-.603.603.247.178c.027.028.068.055.096.041l.11-.123.205-.288.534-.74.302-.397c.137-.123.37-.041.383.15 0 .124-.055.193-.123.289l-.192.26-.315.438-.288.384c-.068.096-.178.219-.219.329l.37.191c.014-.082.055-.137.096-.205l.192-.397.191-.37.37-.713c.096-.15.33-.191.411-.013.083.164-.082.397-.164.548l-.425.835-.26.535c.082.013.192.068.274.096.027.013.082.04.11 0l.054-.137.096-.316.343-1.027c.055-.178.082-.48.342-.466.137 0 .206.11.206.247-.014.11-.124.41-.165.534l-.164.534-.26.822.41.096.07-.534.177-1.123c.028-.151.014-.343.178-.411.028-.028.083-.028.124-.028.26.041.191.329.164.507l-.178 1.123-.082.548.424.042-.013-.494v-1.507c.013-.137.11-.205.246-.191.165.013.22.164.22.315v1.329l.013.137v.424h.274c.028 0 .082 0 .11-.027s.014-.096 0-.123l-.055-.33-.205-1.328c-.028-.123-.042-.247.054-.343a.18.18 0 0 1 .137-.054c.124-.014.192.054.233.164l.096.562.096.575.137.85.425-.07-.137-.396-.151-.452-.192-.603-.137-.439c-.027-.15.041-.301.206-.301.219-.014.246.205.301.37l.082.246.357 1.055.082.274.055.11c.027.014.082-.014.123-.027l.288-.083-.247-.48-.575-1.123c-.069-.137-.165-.274-.069-.41a.17.17 0 0 1 .11-.083l.096-.013c.15 0 .205.164.274.287l.082.15.52 1.015.247.48.41-.193-.177-.26-.356-.48-.33-.438-.232-.315c-.055-.082-.11-.123-.11-.22-.013-.136.069-.246.206-.246.164-.013.233.124.329.247l.123.164.671.905.192.26.082.11c.041.013.096-.028.124-.042.082-.054.191-.15.274-.178l-.233-.246-.411-.411-.521-.521c-.068-.068-.233-.22-.274-.288l-.014-.11c0-.136.083-.218.22-.218.04 0 .082 0 .123.027.082.041.342.315.41.397l.672.658.26.26.124.11c.04.013.082-.028.123-.055l.247-.247c-.11-.054-.288-.205-.398-.274l-.904-.671c-.123-.082-.383-.233-.383-.384a.218.218 0 0 1 .246-.246c.11.014.192.082.274.15l.247.179.698.507.548.41.316-.41c-.124-.042-.165-.083-.274-.137l-.535-.274-.904-.453c-.233-.137-.178-.397-.014-.438.041-.027.124-.014.178 0l.425.206.945.479c.11.055.357.206.466.233.014-.055.124-.164.165-.192.465-.274 1.055.11.972.534m-.534.918h-.014l.014.014z" data-color="1"/><path fill="#00788c" d="m59.677 45.099.342.096.727.191 2.11.548.808.22c.137.04.26.068.287.232.014.151-.11.26-.246.26-.069 0-.206-.054-.288-.068l-.575-.15-.494-.137-1.657-.439-.411-.096-.603-.164" data-color="1"/></svg>