<svg viewBox="0 0 1756 1755" xmlns="http://www.w3.org/2000/svg" data-type="color" role="presentation" aria-hidden="true" aria-label="">
    <g>
        <path d="M1690.4 31.1v1674.3a2.5 2.5 0 0 1-2.5 2.5H119.2a2.5 2.5 0 0 1-2.5-2.5V31.1a2.5 2.5 0 0 1 2.5-2.5h1568.7a2.5 2.5 0 0 1 2.5 2.5" fill="#ffffff" data-color="1"></path>
        <path fill="#00788c" d="M0 1608V109S0 0 130 0h1502c124 0 124 134 124 134v1484s0 137-141 137H134C0 1755 0 1608 0 1608M896 178V79c0-11-7-20-18-20-12 0-18 9-18 20v100c-16 0-31 2-46 4l-25 4-6-33-8-52c-2-12-3-27-18-28-10-1-18 6-20 15-1 4 1 10 1 14l10 63 4 18v8c-1 3-13 5-16 6l-32 9-20 7c-2-11-11-34-15-45l-11-36c-4-10-7-22-19-23-14-1-21 10-19 23l15 47 17 48-27 12-36 19-28-58-15-29c-12-15-32-8-32 9-1 9 5 18 9 26l9 18 14 28 7 16c1 2 4 5 3 8s-12 10-15 12c-11 7-30 22-39 30l-24-34-12-18c-5-6-14-22-19-26-12-10-31-1-30 15 0 8 10 19 15 26l20 28 23 33c-16 11-34 33-47 47-5-7-23-24-30-31l-21-21c-5-5-12-13-18-15-11-4-23 3-24 15-1 10 6 16 13 23l36 36 15 15c2 3 5 5 4 9l-10 13-17 24c-2 3-6 12-9 12l-6-3-13-10-35-26-17-12c-13-7-28 2-27 17 0 9 8 14 15 19l30 22 15 12 13 10c1 1 5 3 5 5 1 3-5 12-6 15l-19 41-15-7-45-23c-8-3-18-11-26-10-11 1-17 10-16 20 1 12 12 16 21 20l42 21 26 13-13 37-5 23-9-3-9-4-32-10-33-9c-19-1-26 23-11 33 3 3 21 7 27 9l59 18c-3 11-9 50-9 62l-53-8-24-4c-11-1-22 3-23 16-1 10 6 16 15 19l59 9c4 1 19 2 22 5l1 8v52h-72c-5 0-9 0-13 3-11 7-11 22 0 29 4 3 8 3 13 3h16l16 1h34c2 0 6-1 8 1s2 6 2 9l4 23c0 3 4 20 3 22-1 4-16 5-20 5l-41 7c-7 1-14 1-19 6-10 10-6 32 16 31l30-5 44-7 11 40 6 16c-6 0-16 4-22 6l-29 9-11 4c-9 3-17 6-17 17-1 12 9 20 21 19l24-7 48-15c2 9 19 42 24 51l-54 26c-9 4-16 8-17 18s7 18 17 19c8 0 16-5 24-9l48-23 21 33c1 2 8 10 8 13-1 3-11 10-14 12l-27 20c-4 3-11 7-13 11-9 13 3 31 19 27 6-1 13-7 19-11l41-30c3 6 17 22 23 28 2 2 10 9 10 12 1 3-10 12-12 15l-24 23c-5 5-10 9-11 17-1 11 9 19 20 19 8-1 13-6 19-12l23-23c2-2 9-10 12-11s9 5 12 8l32 27c-7 5-20 25-26 33-3 4-10 13-12 18-3 11 4 23 16 24 10 0 15-6 21-14l16-21c2-3 8-14 12-14 3 0 9 7 12 9l30 28c-4 3-6 9-9 14l-6 12c-4 8-9 16-5 26 5 10 18 13 27 6 6-4 16-24 19-32 6 3 10 9 16 14l17 16c3 2 11 9 13 13 3 5-2 9 0 17 2 9 11 16 20 15l11-5c3 5 18 17 23 22l32 30 76 71 28 26 18 17c13 13 24 25 45 23 16-3 21-11 32-21l40-38 26-26 9-10 38-38 9-10 38-38 10-11 36-36 28-28 14-15 28-29 26-27 12-12 30-30 29-26 14-14 16-17 8-8 34-43 23-35 20-31 7-14 13-27a662 662 0 0 0 42-433c-7-26-15-52-25-77l-6-11 172 44c41 3 55-50 21-68l-234-61-9-14c-12-20-35-53-50-69l14-13 32-31 31-31c11-14 2-31-14-30-11 1-21 14-28 21l-20 19-39 39c-7-9-23-23-31-31-6-6-14-15-21-18l16-22 37-51c7-10 18-20 12-33-6-12-21-13-30-4l-31 43-32 45c-12-11-25-19-37-27l-21-14 12-24 24-47c4-9 13-23 13-32-1-10-9-18-19-17-12 1-17 13-22 23l-25 49c-3 7-13 25-15 32-15-9-31-15-46-21l-21-8 6-18 6-19 6-16 6-21c3-9 10-24 10-33-1-10-10-17-19-16-16 1-17 15-21 27l-28 84-31-8-39-9 10-60 5-30 2-14c-1-21-27-24-34-8l-4 15-4 30-10 62-48-4zm483 904c1 12-5 19-11 29-18 28-42 59-65 83l-8 9-9 8-17 17a568 568 0 0 1-344 141l-11 1h-41l-12-1a572 572 0 0 1-418-222c-50-67-87-147-103-229l-9-59v-9l-1-10-1-21v-27l1-17c0-29 9-81 16-109l4-14a556 556 0 0 1 252-330 568 568 0 0 1 455-56l25 8 16 6a577 577 0 0 1 231 168l17 22c3 3 7 8 8 12l1 10c0 7-5 20-5 20l-15 19c-8 7-24 11-24 11l-3 5-8 25-16 53-46 152-18 59c-3 10-5 18-17 19-11 2-19-8-18-18 0-5 4-15 5-20l13-42 11-36 36-119 9-30 13-44c1-4 5-14 4-18 0-4-13-19-16-23l-41 42-48 48-20 20c-4 4-12 12-16 14-12 5-24-5-23-17 0-7 4-10 8-15l22-21 35-36 61-61-16-15-20-18-31 43-50 69-17 23c-5 6-8 11-17 12-13 0-21-9-17-21 1-7 8-15 12-20l19-26 37-50 37-52-16-11-25-15-26 50-40 79c-5 9-13 30-21 35-3 2-7 2-10 2-10-1-16-9-15-18 0-6 4-12 7-17l15-31 40-77 12-25 8-14c-14-6-32-16-46-19l-15 47-20 61-10 32-6 18c-4 11-6 23-21 22-10-1-16-9-15-18 0-6 3-14 5-19l11-33 27-85 12-36-48-11-10 63-14 87-3 16c-1 9-2 19-11 24-3 1-6 2-9 1-11-1-16-8-15-18l6-43 14-85 8-50-27-2h-22v174c0 5 0 8-3 13-5 10-18 12-26 4-5-5-5-11-5-17V335l-49 6 7 50 15 89 4 28c1 8 3 16-4 23s-20 6-25-3c-4-6-5-18-6-25l-17-102-8-52-45 13 17 54 30 90c4 13 15 36-4 43h-7c-13-1-16-13-19-23l-5-15-29-88-7-24c-3-7-7-16-7-23-10 2-34 16-44 21l33 65 23 44 13 25c4 7 9 15 10 23 2 9-5 18-14 19-14 0-17-9-23-19l-9-17-44-86-12-24c-1-2-4-8-6-9-2-2-7 2-9 4l-18 13-7 7c-1 3 3 7 4 10l17 23 46 64 26 35c9 14 4 30-13 29-4 0-6-1-8-3-7-4-18-22-24-29l-47-65-28-40c-8 5-16 15-23 22-2 2-7 7-7 10s4 6 6 8l17 17 68 69c7 8 24 21 25 32 0 13-11 21-23 16-7-3-17-14-22-19l-69-70-17-17c-2-2-5-6-8-6s-6 5-7 7l-15 23c-3 5 2 7 6 10l27 19 74 54c9 7 23 14 23 28-1 8-7 14-15 14-8 1-14-3-19-8l-25-18-37-26-54-39-12 27c-1 3-4 8-3 10 2 3 6 5 9 6l19 10 80 41 12 7c10 5 21 9 21 23-1 8-7 14-15 14-8 1-21-7-28-10l-51-27-40-20c-6-3-16-9-21-10l-10 38 117 39c12 4 35 8 33 25l-1 6c-8 15-24 8-35 4l-88-29-32-11-4 27c0 3-1 9 1 11s9 2 12 3l26 4 69 11 37 7c16 8 12 34-9 32l-75-12-26-4-36-5v27c1 3 0 7 2 9s6 2 9 2h126c5 0 8 0 13 2 10 6 12 19 4 27-6 4-11 5-17 5H429l7 36 47-8 73-12c12-2 31-7 36 9l1 7c-1 16-21 16-33 18l-28 5-44 7-42 7c1 7 5 17 8 24 1 2 2 6 5 7l10-2 26-9 65-21 31-10c18-2 26 19 12 30-5 4-18 7-24 9l-50 17-57 19 11 21c1 2 3 6 6 7l10-4 23-12 62-31 29-15c16-4 28 11 20 25-4 5-10 8-15 11l-23 11-35 18-34 17c-7 3-13 8-20 10l14 19c1 2 4 5 7 5 2 0 6-3 8-5l18-13 65-47c8-6 18-17 30-16 10 0 15 8 15 18-1 7-5 11-10 15l-24 17-32 24-31 22-18 13c3 5 11 12 16 17 1 2 4 4 7 4l7-6 16-16 56-56c7-8 20-24 32-23 9 1 15 8 15 18-1 7-5 12-10 17l-19 19-28 28-44 44 18 13c2 2 5 4 7 3l8-9 15-21 39-54 22-29c10-9 27-3 28 11 0 9-4 14-9 21l-14 19-23 32-21 28c-5 7-13 16-16 24l27 14c1-6 4-10 7-15l14-29 14-27 27-52c7-11 24-14 30-1 6 12-6 29-12 40l-31 61-19 39c6 1 14 5 20 7 2 1 6 3 8 0l4-10 7-23 25-75c4-13 6-35 25-34 10 0 15 8 15 18-1 8-9 30-12 39l-12 39-19 60 30 7 5-39 13-82c2-11 1-25 13-30 2-2 6-2 9-2 19 3 14 24 12 37l-13 82-6 40 31 3-1-36v-110c1-10 8-15 18-14 12 1 16 12 16 23v97l1 10v31h20c2 0 6 0 8-2s1-7 0-9l-4-24-15-97c-2-9-3-18 4-25 3-3 6-4 10-4 9-1 14 4 17 12l7 41 7 42 10 62 31-5-10-29-11-33-14-44-10-32c-2-11 3-22 15-22 16-1 18 15 22 27l6 18 26 77 6 20 4 8c2 1 6-1 9-2l21-6-18-35-42-82c-5-10-12-20-5-30 2-3 4-5 8-6l7-1c11 0 15 12 20 21l6 11 38 74 18 35 30-14-13-19-26-35-24-32-17-23c-4-6-8-9-8-16-1-10 5-18 15-18 12-1 17 9 24 18l9 12 49 66 14 19 6 8c3 1 7-2 9-3 6-4 14-11 20-13l-17-18-30-30-38-38c-5-5-17-16-20-21l-1-8c0-10 6-16 16-16 3 0 6 0 9 2 6 3 25 23 30 29l49 48 19 19 9 8c3 1 6-2 9-4l18-18c-8-4-21-15-29-20l-66-49c-9-6-28-17-28-28-1-11 7-19 18-18 8 1 14 6 20 11l18 13 51 37 40 30 23-30c-9-3-12-6-20-10l-39-20-66-33c-17-10-13-29-1-32 3-2 9-1 13 0l31 15 69 35c8 4 26 15 34 17 1-4 9-12 12-14 34-20 77 8 71 39m-39 67h-1l1 1z" data-color="2"></path>
        <path d="m1347 478 25 7 53 14 154 40 59 16c10 3 19 5 21 17 1 11-8 19-18 19-5 0-15-4-21-5l-42-11-36-10-121-32-30-7-44-12" fill="#00788c" data-color="2"></path>
    </g>
</svg>