<svg xmlns="http://www.w3.org/2000/svg" xml:space="preserve" id="Ebene_1" x="0" y="0" version="1.1" viewBox="0 0 512 512"><style id="style2" type="text/css">.st0{fill:#80cc28}</style><g id="g880" transform="translate(-3.252 1.627)"><g id="g8" style="stroke-width:.814388" transform="matrix(1.22792 0 0 1.22792 -55.034 -60.029)"><path id="polygon4" d="m362.43 244.34-23.33 95.63-95.63 23.33 178.62 59.67z" class="st0" style="stroke-width:.814388"/><path id="path6" d="M255.96 393.69c-36.77 0-71.33-14.32-97.33-40.31-26-26-40.31-60.56-40.31-97.33s14.32-71.33 40.31-97.33c26-26 60.56-40.31 97.33-40.31s71.33 14.32 97.33 40.31c26 26 40.31 60.56 40.31 97.33 0 7.78-.65 15.46-1.91 22.99l26.56 79.53c18.78-29.66 29.65-64.82 29.65-102.52 0-106.01-85.94-191.96-191.96-191.96S64 150.03 64 256.04 149.94 448 255.96 448c37.83 0 73.1-10.95 102.83-29.84l-79.24-26.47c-7.72 1.32-15.61 2-23.59 2" class="st0" style="stroke-width:.814388"/></g></g></svg>